<svg width="41" height="41" viewBox="0 0 41 41" fill="none" xmlns="http://www.w3.org/2000/svg">
<path d="M18.4156 34.2396L33.4977 16.2805L33.5103 16.2637C33.7443 15.9715 33.8916 15.6195 33.9354 15.2477C33.9792 14.8759 33.9178 14.4993 33.7581 14.1607C33.5985 13.8221 33.347 13.5351 33.0323 13.3324C32.7176 13.1297 32.3523 13.0193 31.978 13.0139C31.971 13.013 31.964 13.0127 31.9571 13.0131L8.50433 13.2865C8.09003 13.2806 7.6844 13.4054 7.34506 13.6431C7.00571 13.8809 6.74991 14.2195 6.61399 14.6109L6.60136 14.6462C6.46207 15.0451 6.45465 15.4782 6.58017 15.8817C6.7057 16.2851 6.95753 16.6376 7.29854 16.887L7.31956 16.9025L15.5802 22.7572L14.8664 32.857L14.865 32.8831C14.846 33.3034 14.9601 33.719 15.191 34.0707C15.4219 34.4224 15.7578 34.6924 16.151 34.8421C16.5442 34.9919 16.9745 35.0139 17.3809 34.9049C17.7873 34.796 18.149 34.5616 18.4145 34.2353L18.4156 34.2396ZM17.6164 22.3387C17.6284 22.1676 17.5961 21.9963 17.5228 21.8413C17.4495 21.6862 17.3375 21.5527 17.1976 21.4534L8.49627 15.287L8.5188 15.2871L31.9601 15.0122L16.881 32.9591L16.8672 32.9754L17.6164 22.3387Z" fill="currentColor"/>
</svg>
